<svg width="55" height="51" viewBox="0 0 55 51" fill="none" xmlns="http://www.w3.org/2000/svg">
<path d="M0 20C0 8.9543 8.95431 0 20 0H35C46.0457 0 55 8.95431 55 20V51H20C8.95431 51 0 42.0457 0 31V20Z" fill="url(#paint0_linear_1_51)"/>
<path d="M36.0795 25.2727C36.0795 27.1364 35.7386 28.7386 35.0568 30.0795C34.375 31.4148 33.4403 32.4432 32.2528 33.1648C31.071 33.8807 29.7273 34.2386 28.2216 34.2386C26.7102 34.2386 25.3608 33.8807 24.1733 33.1648C22.9915 32.4432 22.0597 31.4119 21.3778 30.071C20.696 28.7301 20.3551 27.1307 20.3551 25.2727C20.3551 23.4091 20.696 21.8097 21.3778 20.4744C22.0597 19.1335 22.9915 18.1051 24.1733 17.3892C25.3608 16.6676 26.7102 16.3068 28.2216 16.3068C29.7273 16.3068 31.071 16.6676 32.2528 17.3892C33.4403 18.1051 34.375 19.1335 35.0568 20.4744C35.7386 21.8097 36.0795 23.4091 36.0795 25.2727ZM33.4716 25.2727C33.4716 23.8523 33.2415 22.6562 32.7812 21.6847C32.3267 20.7074 31.7017 19.9688 30.9062 19.4688C30.1165 18.9631 29.2216 18.7102 28.2216 18.7102C27.2159 18.7102 26.3182 18.9631 25.5284 19.4688C24.7386 19.9688 24.1136 20.7074 23.6534 21.6847C23.1989 22.6562 22.9716 23.8523 22.9716 25.2727C22.9716 26.6932 23.1989 27.892 23.6534 28.8693C24.1136 29.8409 24.7386 30.5795 25.5284 31.0852C26.3182 31.5852 27.2159 31.8352 28.2216 31.8352C29.2216 31.8352 30.1165 31.5852 30.9062 31.0852C31.7017 30.5795 32.3267 29.8409 32.7812 28.8693C33.2415 27.892 33.4716 26.6932 33.4716 25.2727Z" fill="white"/>
<defs>
<linearGradient id="paint0_linear_1_51" x1="49" y1="45.5" x2="-2.34233e-06" y2="8" gradientUnits="userSpaceOnUse">
<stop stop-color="#226FE1"/>
<stop offset="1" stop-color="#226FE1" stop-opacity="0.4"/>
</linearGradient>
</defs>
</svg>
